<?xml version="1.0" encoding="iso-8859-1"?>
<!-- Generator: Adobe Illustrator 19.0.0, SVG Export Plug-In . SVG Version: 6.00 Build 0)  -->
<svg xmlns="http://www.w3.org/2000/svg" xmlns:xlink="http://www.w3.org/1999/xlink" version="1.1" id="Capa_1" x="0px" y="0px" viewBox="0 0 496 496" style="enable-background:new 0 0 496 496;" xml:space="preserve" width="512px" height="512px">
<g>
	<g>
		<path d="M344.88,0.048L312,0v8c0,35.288-28.712,64-64,64c-35.288,0-64-28.712-64-64V0h-32L0,16.84v26.264    c0,17.608,6.008,33.792,16,46.768V496h88V318.384c7.88,24.232,16,61.68,16,113.616v8h128h128v-8c0-51.632,8.112-89.088,16-113.4    V496h88V89.872c9.992-12.976,16-29.168,16-46.768V16.84L344.88,0.048z M152.888,54.8l5.968-38.8h9.536    c3.76,37.736,33.864,67.824,71.6,71.584v32.12c-7.216-0.512-14.272-1.736-21.12-3.568l4.28-8.56l-14.312-7.16l-5.224,10.448    c-10.528-4.536-20.264-10.712-28.944-18.232l6.976-6.976l-11.312-11.312l-6.976,6.976c-4.656-5.384-8.832-11.256-12.456-17.568    C151.72,60.832,152.416,57.864,152.888,54.8z M16,31.16l126.504-14.056l-5.432,35.264C132.48,82.288,107.168,104,76.888,104    C43.312,104,16,76.68,16,43.104V31.16z M48,480H32v-16h16V480z M48,448H32v-16h16V448z M48,416H32v-16h16V416z M48,384H32v-16h16    V384z M48,352H32v-16h16V352z M48,320H32v-16h16V320z M48,288H32v-16h16V288z M48,256H32v-16h16V256z M48,224H32v-16h16V224z     M48,192H32v-16h16V192z M48,160H32v-16h16V160z M48,128H32v-22.592c4.936,3.568,10.28,6.584,16,8.912V128z M240,392h-48v-32h16    v16h16v-16h16V392z M240,296h-48v-32h16v16h16v-16h16V296z M240,200h-48v-32h16v16h16v-16h16V200z M240,152h-64v64h64v32h-64v64    h64v32h-64v64h64v16H135.936c-1.4-89.392-25.912-136.088-31.936-146.248V144H88v336H64V118.832    c4.2,0.712,8.488,1.168,12.888,1.168c28.32,0,53.168-15.072,66.528-38.232C165.704,113.4,201.08,133.312,240,135.72V152z     M255.992,87.584C293.736,83.824,323.84,53.736,327.6,16h9.536l5.968,38.8c0.472,3.064,1.176,6.032,1.976,8.952    c-3.624,6.312-7.8,12.184-12.456,17.568l-6.976-6.976l-11.312,11.312l6.976,6.976c-8.672,7.52-18.416,13.704-28.944,18.232    l-5.224-10.448l-14.312,7.16l4.28,8.56c-6.848,1.84-13.912,3.064-21.12,3.568V87.584z M288,280v-16h16v32h-48v-32h16v16H288z     M288,376v-16h16v32h-48v-32h16v16H288z M432,480h-24V144h-16v133.752c-6.024,10.168-30.536,56.856-31.936,146.248H256v-16h64v-64    h-64v-32h64v-64h-64v-32h16v-16h-16v-32h16v16h16v-16h16v32h-16v16h32v-64h-64v-16.272c38.92-2.416,74.296-22.32,96.584-53.952    c13.352,23.152,38.2,38.224,66.52,38.224c4.4,0,8.696-0.456,12.896-1.168V480z M464,480h-16v-16h16V480z M464,448h-16v-16h16V448z     M464,416h-16v-16h16V416z M464,384h-16v-16h16V384z M464,352h-16v-16h16V352z M464,320h-16v-16h16V320z M464,288h-16v-16h16V288z     M464,256h-16v-16h16V256z M464,224h-16v-16h16V224z M464,192h-16v-16h16V192z M464,160h-16v-16h16V160z M464,128h-16v-13.688    c5.72-2.328,11.064-5.344,16-8.912V128z M480,43.104C480,76.68,452.68,104,419.104,104c-30.272,0-55.576-21.712-60.176-51.64    l-5.432-35.256L480,31.16V43.104z" fill="#FFFFFF"/>
	</g>
</g>
<g>
</g>
<g>
</g>
<g>
</g>
<g>
</g>
<g>
</g>
<g>
</g>
<g>
</g>
<g>
</g>
<g>
</g>
<g>
</g>
<g>
</g>
<g>
</g>
<g>
</g>
<g>
</g>
<g>
</g>
</svg>
